<svg viewBox="0 0 207.44 167.06" xmlns="http://www.w3.org/2000/svg"><g fill="#fff" transform="translate(-553.14 -936.93)"><path d="m592.61 1043h6.12v16h-4v-12.79l-4.85 12.79h-3.48l-4.85-12.79v12.79h-4v-16h6.11l4.55 11.49z"/><path d="m604.37 1043h10.3c4.35 0 5.41 2.71 5.41 4.85 0 3.4-1.71 5.41-5.08 5.41h-6.46v5.7h-4.16v-16zm4.16 7.36h4.47c1.29 0 2.79 0 2.79-2.19s-1.22-2.26-2.41-2.26h-4.85z"/><path d="m624.53 1043h4.16v16h-4.16z"/><path d="m563.06 1042.53c8.58 0 9.93 5.09 9.93 8.42s-1.34 8.42-9.93 8.42-9.92-5.09-9.92-8.42 1.34-8.42 9.92-8.42zm0 13.81c3.93 0 5.32-2.91 5.32-5.39s-1.39-5.38-5.32-5.38-5.32 2.9-5.32 5.38 1.39 5.39 5.32 5.39z"/><path d="m580.89 1067.42a4.1 4.1 0 1 1 -4.24 4.09 3.94 3.94 0 0 1 4.24-4.09zm0 7.45a3.35 3.35 0 1 0 -3.36-3.35 3.15 3.15 0 0 0 3.36 3.34z"/><path d="m588 1067.61h4.25c1.32 0 2.53.47 2.53 2.1a1.9 1.9 0 0 1 -1.53 1.89c1.1.17 1.33.88 1.39 2.16a4.13 4.13 0 0 0 .27 1.62h-.87a3.63 3.63 0 0 1 -.21-1.59c0-1.38-.55-1.84-1.89-1.84h-3.13v3.43h-.81v-7.79zm.81 3.62h3.42a1.43 1.43 0 0 0 1.68-1.52 1.34 1.34 0 0 0 -1.61-1.36h-3.49z"/><path d="m604.74 1073.93a3.53 3.53 0 0 1 -3.24 1.67 3.78 3.78 0 0 1 -4.08-4.09 3.91 3.91 0 0 1 4.17-4.09c2.17 0 3.56 1.22 3.77 2.66h-.87a2.68 2.68 0 0 0 -2.89-1.92 3 3 0 0 0 -3.3 3.35c0 2.09 1.07 3.35 3.14 3.35a3 3 0 0 0 3.32-2.73h-2.86v-.74h3.6v4h-.62z"/><path d="m613.8 1073h-4.11l-1.06 2.37h-.87l3.54-7.79h.94l3.54 7.79h-.94zm-2-4.62-1.8 3.92h3.45z"/><path d="m618.06 1067.61h1l5.45 6.66v-6.66h.81v7.79h-.94l-5.48-6.66v6.66h-.81v-7.79z"/><path d="m628.47 1067.61h.81v7.79h-.81z"/><path d="m637.72 1069.84c-.11-1.33-1.19-1.68-2.45-1.68s-2.21.49-2.21 1.38.95 1.25 2.85 1.57c1.42.24 2.84.57 2.84 2.06 0 1.91-1.74 2.43-3.25 2.43-2 0-3.42-.68-3.54-2.77h.81c.14 1.63 1.23 2 2.73 2 1.17 0 2.38-.32 2.38-1.55s-1.42-1.33-2.84-1.56c-1.86-.29-2.85-.82-2.85-2.07 0-1.71 1.57-2.26 3.08-2.26s3.2.57 3.25 2.42h-.81z"/><path d="m646.61 1073h-4.1l-1.06 2.37h-.87l3.54-7.79h.94l3.54 7.79h-.94zm-2-4.62-1.74 3.88h3.45z"/><path d="m652.59 1068.35h-3.06v-.74h6.92v.74h-3.05v7.05h-.81z"/><path d="m658.87 1067.61h.81v7.79h-.81z"/><path d="m666.77 1067.42a4.1 4.1 0 1 1 -4.24 4.09 3.94 3.94 0 0 1 4.24-4.09zm0 7.45a3.35 3.35 0 1 0 -3.36-3.35 3.15 3.15 0 0 0 3.36 3.34z"/><path d="m673.78 1067.61h1l5.45 6.66v-6.66h.77v7.79h-.94l-5.48-6.66v6.66h-.81v-7.79z"/><path d="m696.89 1067.61h1.11v7.79h-.81v-6.74l-3.44 6.74h-.75l-3.43-6.75v6.75h-.81v-7.79h1.18l3.47 6.78z"/><path d="m705 1067.42a4.1 4.1 0 1 1 -4.23 4.09 3.94 3.94 0 0 1 4.23-4.09zm0 7.45a3.35 3.35 0 1 0 -3.36-3.35 3.14 3.14 0 0 0 3.36 3.34z"/><path d="m712 1067.61h1l5.45 6.66v-6.66h.81v7.79h-.94l-5.48-6.66v6.66h-.84z"/><path d="m722.36 1067.61h3.79c2.27 0 3.45 1.45 3.45 3.9 0 2.19-1.15 3.9-3.33 3.9h-3.91v-7.79zm.81 7.05h2.95c1.4 0 2.61-.76 2.61-3.15 0-2.06-.81-3.16-2.61-3.16h-2.95z"/><path d="m732.57 1067.61h.81v7.79h-.81z"/><path d="m741.79 1073h-4.11l-1.06 2.37h-.87l3.54-7.79h.94l3.54 7.79h-.94zm-2-4.62-1.79 3.92h3.45z"/><path d="m746.05 1067.61h.81v7.05h4.94v.74h-5.75z"/><path d="m754.29 1067.61h6.2v.74h-5.39v2.65h5.2v.74h-5.2v2.93h5.48v.74h-6.29v-7.79z"/><path d="m577.39 1081.8h3.79c2.27 0 3.45 1.45 3.45 3.9 0 2.19-1.15 3.9-3.33 3.9h-3.91v-7.79zm.81 7.05h2.95c1.4 0 2.61-.76 2.61-3.16 0-2.06-.81-3.15-2.61-3.15h-2.95z"/><path d="m587.58 1081.8h6.2v.74h-5.39v2.64h5.2v.74h-5.2v2.93h5.48v.74h-6.29z"/><path d="m601.1 1081.8h.81v7.05h4.95v.74h-5.76z"/><path d="m614.39 1087.22h-4.1l-1.06 2.37h-.87l3.54-7.79h.94l3.54 7.79h-.94zm-2-4.62-1.73 3.88h3.45z"/><path d="m623.27 1081.8h4.8a2.24 2.24 0 0 1 2.53 2.42 2.32 2.32 0 0 1 -2.51 2.4h-3.19v3h-1.64v-7.79zm1.64 3.6h2.63c.93 0 1.43-.25 1.43-1.18a1.14 1.14 0 0 0 -1.31-1.2h-2.75z"/><path d="m633.33 1081.8h4.93c2 0 2.63.91 2.63 2.12a1.84 1.84 0 0 1 -1.29 1.88c.93.2 1.14 1 1.14 2.11a3.26 3.26 0 0 0 .33 1.67h-1.77a2.61 2.61 0 0 1 -.2-1.18c0-1.12-.15-1.9-1.35-1.9h-2.75v3.08h-1.64v-7.79zm4.47 3.49c.91 0 1.4-.27 1.4-1.14a1.13 1.13 0 0 0 -1.4-1.13h-2.8v2.27h2.83z"/><path d="m643.35 1085.69c0-2.19 1.29-4.11 4.58-4.11s4.58 1.92 4.58 4.11-1.29 4.12-4.58 4.12-4.58-1.92-4.58-4.12zm7.47 0a2.88 2.88 0 1 0 -2.88 2.89 2.69 2.69 0 0 0 2.88-2.89z"/><path d="m655.25 1081.8h4.75a2.24 2.24 0 0 1 2.53 2.42 2.32 2.32 0 0 1 -2.51 2.4h-3.19v3h-1.64v-7.79zm1.64 3.6h2.63c.93 0 1.43-.25 1.43-1.18a1.14 1.14 0 0 0 -1.31-1.2h-2.75z"/><path d="m665.3 1081.8h4.93c2 0 2.63.91 2.63 2.12a1.83 1.83 0 0 1 -1.29 1.88c.93.2 1.13 1 1.13 2.11a3.28 3.28 0 0 0 .33 1.67h-1.77a2.63 2.63 0 0 1 -.2-1.18c0-1.12-.15-1.9-1.35-1.9h-2.78v3.08h-1.63v-7.79zm4.46 3.49c.91 0 1.4-.27 1.4-1.14a1.13 1.13 0 0 0 -1.4-1.13h-2.83v2.27z"/><path d="m675.77 1081.8h1.64v7.79h-1.64z"/><path d="m680.57 1081.8h6.77v1.2h-5.14v2h4.92v1.22h-4.92v2.16h5.22v1.22h-6.86v-7.79zm3.31-2h1.86l-1.53 1.55h-1.3z"/><path d="m692.35 1083h-2.93v-1.22h7.49v1.22h-2.91v6.57h-1.64v-6.57z"/><path d="m699.28 1081.8h6.72v1.2h-5.13v2h4.93v1.22h-4.93v2.16h5.22v1.22h-6.85v-7.79zm3.31-2h1.86l-1.53 1.55h-1.3z"/><path d="m577.39 1096h1.61v7.79h-1.64v-7.79z"/><path d="m582.31 1096h1.88l4.64 5.85v-5.85h1.57v7.79h-1.84l-4.67-5.85v5.85h-1.57v-7.79z"/><path d="m595.83 1097.2h-2.93v-1.2h7.49v1.22h-2.93v6.57h-1.64v-6.57z"/><path d="m602.88 1096h6.77v1.22h-5.13v2h4.92v1.22h-4.92v2.16h5.22v1.22h-6.86z"/><path d="m612.65 1096h1.64v6.51h4.71v1.29h-6.38v-7.8z"/><path d="m621.62 1096h1.64v6.51h4.74v1.29h-6.38z"/><path d="m630.59 1096h6.77v1.22h-5.13v2h4.92v1.22h-4.92v2.16h5.22v1.22h-6.86z"/><path d="m646.77 1098.86a2.27 2.27 0 0 0 -2.51-1.88c-1.51 0-2.63 1-2.63 3a2.62 2.62 0 0 0 2.74 2.75 2.24 2.24 0 0 0 2.4-2h1.77c-.23 1.55-1.24 3.2-4.45 3.2a3.88 3.88 0 0 1 -4.16-4.12c0-2.19 1.29-4.12 4.36-4.12 2.69 0 4.08 1.42 4.26 3.1h-1.77z"/><path d="m653.68 1097.2h-2.92v-1.2h7.49v1.22h-2.93v6.57h-1.64v-6.57z"/><path d="m660.66 1096h1.64v4.4c0 1.08 0 2.39 2.17 2.39s2.18-1.31 2.18-2.39v-4.4h1.64v4.44c0 1.29 0 3.57-3.82 3.57s-3.81-2.28-3.81-3.57z"/><path d="m671.5 1096h6.77v1.22h-5.13v2h4.92v1.22h-4.92v2.16h5.22v1.22h-6.86z"/><path d="m681.28 1096h1.64v6.51h4.74v1.29h-6.38z"/><path d="m690.24 1096h1.64v6.51h4.74v1.29h-6.37v-7.8z"/><path d="m699.21 1096h6.79v1.22h-5.13v2h4.93v1.22h-4.93v2.16h5.22v1.22h-6.85v-7.82z"/><path d="m627.44 958.06a11.29 11.29 0 0 0 -.79-1 8.23 8.23 0 0 0 2.07-5.17 7.23 7.23 0 0 0 -1.21-3.9c-2.69-4.27-9.73-8-19.64-11v1.44c10.31 2.63 17.27 6 19.5 9.69a5.08 5.08 0 0 1 .77 2.62c0 1.74-1 3.42-2.74 5-3.49-3.26-9.56-6.18-17.54-8.62v1.44c8.07 2.05 14.07 4.54 17.38 7.32a30.54 30.54 0 0 1 -8.35 4.75 77.69 77.69 0 0 0 -9-3.34v1.44q4.34 1.11 7.86 2.38c-9 3.48-22.33 6.33-38.32 8.19v4.7a175.21 175.21 0 0 0 30.47-6.58v1.43q4.34 1.11 7.86 2.37c-9 3.48-22.33 6.33-38.32 8.19v4.76a175.48 175.48 0 0 0 30.47-6.58v1.42q4.35 1.11 7.86 2.38c-9 3.48-22.33 6.33-38.32 8.19v4.76a175.22 175.22 0 0 0 30.47-6.58v1.42q4.34 1.11 7.86 2.38c-9 3.48-22.33 6.33-38.32 8.19v4.76a175.4 175.4 0 0 0 30.4-6.51v1.42q4.35 1.11 7.86 2.38c-9 3.48-22.33 6.33-38.32 8.19v4.76c18.26-2.48 33.13-6.52 42.08-11.45a25 25 0 0 1 5.77 3.44c-6.68 5.85-24.42 10.7-47.84 13.42v4.76c24.63-3.34 43.09-9.52 49.17-16.88a8.1 8.1 0 0 1 .75 1 5.11 5.11 0 0 1 .82 2.7c0 8.12-20.7 15.1-50.74 18.59v4.76c30.34-4.12 51.32-12.55 51.32-22.17a7.28 7.28 0 0 0 -1.29-4 11.22 11.22 0 0 0 -.78-1 8.23 8.23 0 0 0 2.07-5.17 7.25 7.25 0 0 0 -1.28-4 11.57 11.57 0 0 0 -.78-1 8.23 8.23 0 0 0 2.07-5.17 7.25 7.25 0 0 0 -1.28-4 11.34 11.34 0 0 0 -.79-1 8.23 8.23 0 0 0 2.07-5.17 7.28 7.28 0 0 0 -1.28-4 11.8 11.8 0 0 0 -.79-1 8.24 8.24 0 0 0 2.07-5.17 7.28 7.28 0 0 0 -1.28-4 11.46 11.46 0 0 0 -.78-1 8.23 8.23 0 0 0 2.07-5.17 7.26 7.26 0 0 0 -1.31-4.01zm-19.56 9.39a69.11 69.11 0 0 0 11.58-4.86 25 25 0 0 1 5.77 3.44 30.5 30.5 0 0 1 -8.34 4.75 77.21 77.21 0 0 0 -9.01-3.33zm0 10.17a69.28 69.28 0 0 0 11.58-4.85 25.08 25.08 0 0 1 5.77 3.43 30.5 30.5 0 0 1 -8.33 4.8 77 77 0 0 0 -9.01-3.38zm0 10.17a69.3 69.3 0 0 0 11.58-4.85 25.06 25.06 0 0 1 5.77 3.44 30.59 30.59 0 0 1 -8.34 4.75 77.28 77.28 0 0 0 -9-3.34zm0 10.17a69.06 69.06 0 0 0 11.58-4.86 25.06 25.06 0 0 1 5.77 3.44 30.44 30.44 0 0 1 -8.34 4.75 77.6 77.6 0 0 0 -9-3.29zm19.43.88a5.1 5.1 0 0 1 .82 2.7c0 1.74-1 3.42-2.74 5a25.45 25.45 0 0 0 -5.24-3.68 23.41 23.41 0 0 0 6.41-5.05 8 8 0 0 1 .75 1.03zm0-10.16a5.1 5.1 0 0 1 .81 2.69c0 1.74-1 3.42-2.74 5a25.46 25.46 0 0 0 -5.24-3.68 23.44 23.44 0 0 0 6.41-5.05 8 8 0 0 1 .77 1.04zm0-10.18a5.11 5.11 0 0 1 .81 2.69c0 1.74-1 3.42-2.74 5a25.49 25.49 0 0 0 -5.24-3.68 23.47 23.47 0 0 0 6.41-5.05 8 8 0 0 1 .77 1.04zm0-10.17a5.08 5.08 0 0 1 .82 2.69c0 1.74-1 3.42-2.74 5a25.47 25.47 0 0 0 -5.24-3.68 23.45 23.45 0 0 0 6.41-5.05 8.16 8.16 0 0 1 .75 1.04zm-1.92-2.45a25.42 25.42 0 0 0 -5.24-3.68 23.47 23.47 0 0 0 6.41-5.05 8 8 0 0 1 .76 1 5.12 5.12 0 0 1 .81 2.68c0 1.76-.95 3.45-2.74 5.06z"/></g></svg>